<?xml version="1.0" encoding="UTF-8"?><svg id="Layer_1" xmlns="http://www.w3.org/2000/svg" viewBox="0 0 612 612"><defs><style>.cls-1{fill:#665a2f;}.cls-1,.cls-2,.cls-3{stroke:#231f20;stroke-miterlimit:10;}.cls-2{fill:#464547;}.cls-3{fill:none;stroke-width:4px;}</style></defs><g><circle class="cls-2" cx="53.03" cy="420.51" r="38.11"/><circle class="cls-2" cx="409.33" cy="420.51" r="38.11"/><circle class="cls-2" cx="321.15" cy="420.51" r="38.11"/><circle class="cls-2" cx="229.11" cy="420.51" r="38.11"/><circle class="cls-2" cx="139.87" cy="420.51" r="38.11"/><circle class="cls-2" cx="494.63" cy="420.51" r="38.11"/></g><path class="cls-3" d="M14.09,424.5c1.53,4.05,3.03,8.02,4.41,11.67,4.08,10.8,14.41,17.93,25.96,17.93H503.04c11.64,0,22.05-7.27,26.06-18.2l4.28-11.67c6.64-18.11-6.77-37.3-26.06-37.3H40.05c-19.41,0-32.82,19.42-25.96,37.57Z"/><path class="cls-1" d="M40.07,415.99H494.36c32.1,0,51.13-35.91,33.11-62.47l-57.09-84.14c-7.45-10.97-19.84-17.54-33.11-17.54H88.75c-14.28,0-27.48,7.61-34.63,19.97L5.44,355.95c-15.43,26.67,3.82,60.04,34.63,60.04Z"/><path class="cls-1" d="M287.04,211.79l324.96-115.78-8.66-24.3-324.48,115.61-2.12-6.34c-1.84-5.49-4.89-8.77-8.16-8.77h-85.91c-3.52,0-6.77,3.81-8.54,9.99l-12,42.07c-3.8,13.34,.94,30.02,8.54,30.02h111.98c7.91,0,12.6-17.95,8.16-31.24l-3.77-11.26Z"/></svg>