<?xml version="1.0" encoding="UTF-8"?><svg id="Layer_1" xmlns="http://www.w3.org/2000/svg" viewBox="0 0 612 612"><defs><style>.cls-1{fill:#ffc761;}.cls-1,.cls-2,.cls-3,.cls-4,.cls-5{stroke:#231f20;stroke-miterlimit:10;}.cls-2{fill:#ffcf01;}.cls-3{fill:#434345;}.cls-4{fill:#3e56a6;}.cls-5{fill:#231f20;}</style></defs><rect class="cls-4" x="379.13" y="216.09" width="107.62" height="242.46" rx="27.39" ry="27.39"/><circle class="cls-1" cx="435.89" cy="175.22" r="56.76"/><rect class="cls-5" x="394.67" y="-.05" width="85.21" height="136.27"/><rect class="cls-4" x="424.34" y="458.55" width="23.1" height="153.5"/><rect class="cls-4" x="425.73" y="458.55" width="23.1" height="153.5"/><rect class="cls-4" x="276.54" y="131.12" width="25.43" height="166.61" rx="5.22" ry="5.22" transform="translate(560.73 -22.1) rotate(102.39)"/><circle class="cls-2" cx="363.5" cy="231.78" r="32.37"/><rect class="cls-4" x="388.1" y="110.53" width="25.43" height="198" rx="5.22" ry="5.22" transform="translate(701.57 -128.25) rotate(104.08)"/><circle class="cls-2" cx="499.25" cy="234.88" r="32.37"/><polygon class="cls-3" points="252.08 169.36 224.44 169.36 128.09 169.36 128.09 165.59 96.36 165.59 96.36 169.36 80.38 169.36 80.38 183.53 159.96 183.53 159.96 222.7 176.34 222.7 176.34 183.53 208.07 183.53 208.07 203.11 220.35 203.11 220.35 183.53 224.44 183.53 252.08 193.53 332.68 193.53 332.68 169.36 252.08 169.36"/></svg>