<?xml version="1.0" encoding="UTF-8"?><svg id="Layer_1" xmlns="http://www.w3.org/2000/svg" viewBox="0 0 612 612"><defs><style>.cls-1{fill:#665a2f;}.cls-2{fill:#ffc761;}.cls-2,.cls-3,.cls-4{stroke:#231f20;stroke-miterlimit:10;}.cls-3{fill:#3e56a6;}.cls-4{fill:#231f20;}</style></defs><rect class="cls-3" x="305.68" y="173.02" width="86.15" height="194.08" rx="10.39" ry="10.39"/><path class="cls-1" d="M574.29,293.72c0-12.13-14.76-21.97-33.11-22.21v-.02s-.13,.02-.13,.02c-.19,0-.38-.02-.57-.02-5.08,0-9.89,.76-14.22,2.08l-256.85,35.87c-23.53,0-44.9,9.24-60.71,24.26h0c-.17-.35-36.71-14.51-47.65,7.81-12.59,25.69-54.64,63.61-82.82,54.63,0,0,4.68,100.88,78.42,10.44l32.53-45.54c-5.09,11.15-7.96,23.54-7.96,36.6v7.1c-1.29,1.29-2.3,2.89-2.82,4.77l-34.84,127.77c-1.67,6.14,2.28,12.39,8.54,13.51,4.97,.89,9.9-1.77,11.88-6.41l27.34-64.08c.38-.89,.87-1.72,1.47-2.47l39.35-49.72c1.72-2.18,2.43-4.73,2.32-7.2l14.83,4.09v81.76h.08c-.1,2.18,.23,4.41,1.18,6.54l29.12,65.09c3.25,7.26,11.77,10.51,19.03,7.26l1.11-.5c7.26-3.25,10.51-11.77,7.26-19.03l-26.86-60.04,5.7-70.99,103.36,28.5-9.05,71.03-1.54-.15s-34.85,25.55-29.32,25.55h-14.34c-4.86,0-9.06,3.4-10.08,8.15l-.25,1.16c-1.56,7.26,4.83,13.73,12.11,12.28l25.65-5.13c1.96-.39,3.76-1.34,5.19-2.74l35.05-34.27,3.64,.62,7.02-38.48c21.07,32.33,50.65,77.49,57.92,88.6,1.09,1.67,1.67,3.61,1.67,5.6v5.93c0,5.67,4.59,10.26,10.26,10.26,7.5,0,12.47-7.76,9.32-14.56-13.22-28.47-41.25-91.06-45.24-117.86l5.79,1.6,67.23-160.01v55.67c0,13.62,11.05,24.67,24.67,24.67h4.63c13.62,0,24.67-11.05,24.67-24.67v-68.71c0-2.85-.51-5.57-1.4-8.12,.9-2,1.4-4.11,1.4-6.29Z"/><circle class="cls-2" cx="351.11" cy="140.3" r="45.44"/><rect class="cls-4" x="318.12" width="68.21" height="109.09"/></svg>