<?xml version="1.0" encoding="UTF-8"?><svg id="Layer_1" xmlns="http://www.w3.org/2000/svg" viewBox="0 0 612 612"><defs><style>.cls-1{stroke-width:.58px;}.cls-1,.cls-2,.cls-3,.cls-4,.cls-5,.cls-6,.cls-7,.cls-8{stroke:#231f20;stroke-miterlimit:10;}.cls-1,.cls-2,.cls-6{fill:#fff;}.cls-2{stroke-width:.23px;}.cls-3{fill:#00aeef;}.cls-4{fill:#fff200;}.cls-5{fill:#bec0c2;}.cls-6{stroke-width:.44px;}.cls-7{fill:#2e3690;stroke-width:.27px;}.cls-8{fill:#ec2227;stroke-width:.57px;}</style></defs><g><path class="cls-5" d="M361.28,164.11v189.9L522.69,.71c-5.66-13.25-161.41,163.4-161.41,163.4Z"/><path class="cls-5" d="M89.31,.71L250.72,354.02V164.11S94.97-12.54,89.31,.71Z"/><path class="cls-5" d="M306,108.13c-30.39,0-55.02,24.63-55.02,55.02h-.26V455.73l60.16,156.27,50.39-156.27V163.15h-.26c0-30.39-24.63-55.02-55.02-55.02Z"/></g><path class="cls-4" d="M361.28,160.53c0-28.94-24.75-52.4-55.28-52.4s-55.28,23.46-55.28,52.4c0,2.96,110.56,2.96,110.56,0Z"/><g><rect class="cls-8" x="269.51" y="209.44" width="75.08" height="132.21" transform="translate(-1.08 1.21) rotate(-.23)"/><rect class="cls-7" x="269.66" y="285.64" width="40.52" height="56.08" transform="translate(-1.23 1.14) rotate(-.23)"/><rect class="cls-1" x="321.55" y="209.37" width="5.97" height="132.21" transform="translate(-1.08 1.28) rotate(-.23)"/><rect class="cls-1" x="332.64" y="209.33" width="5.97" height="132.21" transform="translate(-1.08 1.32) rotate(-.23)"/><rect class="cls-1" x="310.03" y="209.41" width="5.97" height="132.21" transform="translate(-1.08 1.23) rotate(-.23)"/><rect class="cls-6" x="298.41" y="209.46" width="5.97" height="76.13" transform="translate(-.97 1.19) rotate(-.23)"/><rect class="cls-6" x="286.89" y="209.51" width="5.97" height="76.13" transform="translate(-.97 1.14) rotate(-.23)"/><rect class="cls-6" x="275.37" y="209.55" width="5.97" height="76.13" transform="translate(-.97 1.1) rotate(-.23)"/><polygon class="cls-2" points="272.56 340.07 272.29 338.19 270.51 337.53 272.21 336.69 272.29 334.8 273.62 336.15 275.44 335.65 274.56 337.33 275.6 338.91 273.74 338.58 272.56 340.07"/><polygon class="cls-2" points="272.45 330.53 272.18 328.65 270.4 327.99 272.11 327.15 272.19 325.26 273.51 326.62 275.34 326.11 274.45 327.79 275.5 329.37 273.63 329.04 272.45 330.53"/><polygon class="cls-2" points="272.41 320.99 272.14 319.11 270.37 318.45 272.07 317.61 272.15 315.72 273.47 317.08 275.3 316.57 274.41 318.25 275.46 319.83 273.59 319.5 272.41 320.99"/><polygon class="cls-2" points="272.38 311.45 272.11 309.57 270.33 308.91 272.03 308.07 272.11 306.18 273.44 307.54 275.26 307.03 274.38 308.71 275.42 310.29 273.56 309.97 272.38 311.45"/><polygon class="cls-2" points="272.34 301.91 272.07 300.03 270.29 299.37 272 298.53 272.08 296.64 273.4 298 275.22 297.49 274.34 299.17 275.39 300.75 273.52 300.43 272.34 301.91"/><polygon class="cls-2" points="272.37 292.37 272.1 290.49 270.32 289.83 272.03 288.99 272.11 287.1 273.43 288.46 275.26 287.95 274.37 289.63 275.42 291.21 273.55 290.89 272.37 292.37"/><polygon class="cls-2" points="276.4 335.08 276.13 333.2 274.35 332.54 276.06 331.7 276.14 329.8 277.46 331.17 279.29 330.66 278.4 332.34 279.45 333.92 277.58 333.59 276.4 335.08"/><polygon class="cls-2" points="276.36 325.54 276.09 323.66 274.32 323 276.02 322.16 276.1 320.27 277.42 321.63 279.25 321.12 278.36 322.8 279.41 324.38 277.54 324.05 276.36 325.54"/><polygon class="cls-2" points="276.33 316 276.06 314.12 274.28 313.46 275.98 312.62 276.06 310.73 277.39 312.09 279.21 311.58 278.33 313.26 279.37 314.84 277.51 314.51 276.33 316"/><polygon class="cls-2" points="276.29 306.46 276.02 304.58 274.24 303.92 275.94 303.08 276.03 301.19 277.35 302.55 279.18 302.04 278.29 303.72 279.34 305.3 277.47 304.98 276.29 306.46"/><polygon class="cls-2" points="276.32 296.92 276.05 295.04 274.27 294.38 275.97 293.54 276.06 291.65 277.38 293.01 279.21 292.5 278.32 294.18 279.37 295.76 277.5 295.44 276.32 296.92"/><polygon class="cls-2" points="280.57 339.83 280.3 337.95 278.52 337.29 280.23 336.45 280.31 334.56 281.63 335.92 283.46 335.41 282.57 337.09 283.62 338.67 281.75 338.35 280.57 339.83"/><polygon class="cls-2" points="280.46 330.29 280.2 328.41 278.42 327.75 280.12 326.92 280.2 325.02 281.52 326.38 283.35 325.87 282.47 327.55 283.51 329.13 281.64 328.81 280.46 330.29"/><polygon class="cls-2" points="280.43 320.75 280.16 318.88 278.38 318.21 280.08 317.38 280.17 315.48 281.49 316.84 283.32 316.33 282.43 318.01 283.48 319.59 281.61 319.27 280.43 320.75"/><polygon class="cls-2" points="280.39 311.21 280.12 309.34 278.34 308.67 280.05 307.84 280.13 305.94 281.45 307.3 283.28 306.79 282.39 308.47 283.44 310.05 281.57 309.73 280.39 311.21"/><polygon class="cls-2" points="280.35 301.68 280.08 299.8 278.31 299.13 280.01 298.3 280.09 296.4 281.41 297.76 283.24 297.26 282.35 298.93 283.4 300.51 281.53 300.19 280.35 301.68"/><polygon class="cls-2" points="280.38 292.14 280.11 290.26 278.34 289.59 280.04 288.76 280.12 286.86 281.44 288.22 283.27 287.72 282.38 289.39 283.43 290.97 281.56 290.65 280.38 292.14"/><polygon class="cls-2" points="284.41 334.84 284.15 332.96 282.37 332.3 284.07 331.46 284.15 329.57 285.47 330.93 287.3 330.42 286.42 332.1 287.46 333.68 285.59 333.36 284.41 334.84"/><polygon class="cls-2" points="284.38 325.3 284.11 323.42 282.33 322.76 284.03 321.92 284.12 320.03 285.44 321.39 287.26 320.88 286.38 322.56 287.43 324.14 285.56 323.82 284.38 325.3"/><polygon class="cls-2" points="284.34 315.76 284.07 313.88 282.29 313.22 284 312.39 284.08 310.49 285.4 311.85 287.23 311.34 286.34 313.02 287.39 314.6 285.52 314.28 284.34 315.76"/><polygon class="cls-2" points="284.3 306.22 284.03 304.35 282.26 303.68 283.96 302.85 284.04 300.95 285.36 302.31 287.19 301.81 286.3 303.48 287.35 305.06 285.48 304.74 284.3 306.22"/><polygon class="cls-2" points="284.33 296.68 284.06 294.81 282.29 294.14 283.99 293.31 284.07 291.41 285.39 292.77 287.22 292.27 286.33 293.94 287.38 295.53 285.51 295.2 284.33 296.68"/><polygon class="cls-2" points="288.47 339.9 288.2 338.02 286.42 337.36 288.12 336.52 288.2 334.63 289.53 335.99 291.35 335.48 290.47 337.16 291.51 338.74 289.65 338.42 288.47 339.9"/><polygon class="cls-2" points="288.36 330.36 288.09 328.49 286.31 327.82 288.02 326.99 288.1 325.09 289.42 326.45 291.25 325.94 290.36 327.62 291.41 329.2 289.54 328.88 288.36 330.36"/><polygon class="cls-2" points="288.32 320.82 288.05 318.95 286.28 318.28 287.98 317.45 288.06 315.55 289.38 316.91 291.21 316.41 290.32 318.08 291.37 319.66 289.5 319.34 288.32 320.82"/><polygon class="cls-2" points="288.28 311.29 288.01 309.41 286.24 308.74 287.94 307.91 288.02 306.01 289.34 307.37 291.17 306.87 290.29 308.54 291.33 310.13 289.46 309.8 288.28 311.29"/><polygon class="cls-2" points="288.25 301.75 287.98 299.87 286.2 299.21 287.9 298.37 287.98 296.47 289.31 297.84 291.13 297.33 290.25 299 291.3 300.59 289.43 300.26 288.25 301.75"/><polygon class="cls-2" points="288.28 292.21 288.01 290.33 286.23 289.67 287.93 288.83 288.02 286.93 289.34 288.3 291.17 287.79 290.28 289.46 291.33 291.05 289.46 290.72 288.28 292.21"/><polygon class="cls-2" points="292.31 334.91 292.04 333.04 290.26 332.37 291.97 331.54 292.05 329.64 293.37 331 295.2 330.49 294.31 332.17 295.36 333.75 293.49 333.43 292.31 334.91"/><polygon class="cls-2" points="292.27 325.37 292 323.5 290.23 322.83 291.93 322 292.01 320.1 293.33 321.46 295.16 320.95 294.27 322.63 295.32 324.21 293.45 323.89 292.27 325.37"/><polygon class="cls-2" points="292.23 315.83 291.96 313.96 290.19 313.29 291.89 312.46 291.97 310.56 293.3 311.92 295.12 311.42 294.24 313.09 295.28 314.67 293.41 314.35 292.23 315.83"/><polygon class="cls-2" points="292.2 306.3 291.93 304.42 290.15 303.75 291.85 302.92 291.94 301.02 293.26 302.38 295.08 301.88 294.2 303.55 295.25 305.13 293.38 304.81 292.2 306.3"/><polygon class="cls-2" points="292.23 296.76 291.96 294.88 290.18 294.21 291.88 293.38 291.97 291.48 293.29 292.84 295.12 292.34 294.23 294.01 295.28 295.6 293.41 295.27 292.23 296.76"/><polygon class="cls-2" points="296.48 339.67 296.21 337.79 294.43 337.12 296.14 336.29 296.22 334.39 297.54 335.75 299.37 335.25 298.48 336.92 299.53 338.5 297.66 338.18 296.48 339.67"/><polygon class="cls-2" points="296.37 330.13 296.11 328.25 294.33 327.58 296.03 326.75 296.11 324.85 297.43 326.22 299.26 325.71 298.37 327.38 299.42 328.97 297.55 328.64 296.37 330.13"/><polygon class="cls-2" points="296.34 320.59 296.07 318.71 294.29 318.05 295.99 317.21 296.08 315.31 297.4 316.68 299.22 316.17 298.34 317.85 299.39 319.43 297.52 319.1 296.34 320.59"/><polygon class="cls-2" points="296.3 311.05 296.03 309.17 294.25 308.51 295.96 307.67 296.04 305.78 297.36 307.14 299.19 306.63 298.3 308.31 299.35 309.89 297.48 309.56 296.3 311.05"/><polygon class="cls-2" points="296.26 301.51 295.99 299.63 294.21 298.97 295.92 298.13 296 296.24 297.32 297.6 299.15 297.09 298.26 298.77 299.31 300.35 297.44 300.03 296.26 301.51"/><polygon class="cls-2" points="296.29 291.97 296.02 290.09 294.25 289.43 295.95 288.59 296.03 286.7 297.35 288.06 299.18 287.55 298.29 289.23 299.34 290.81 297.47 290.49 296.29 291.97"/><polygon class="cls-2" points="300.32 334.68 300.05 332.8 298.28 332.13 299.98 331.3 300.06 329.4 301.38 330.76 303.21 330.26 302.33 331.93 303.37 333.52 301.5 333.19 300.32 334.68"/><polygon class="cls-2" points="300.29 325.14 300.02 323.26 298.24 322.6 299.94 321.76 300.02 319.86 301.35 321.22 303.17 320.72 302.29 322.4 303.34 323.98 301.47 323.65 300.29 325.14"/><polygon class="cls-2" points="300.25 315.6 299.98 313.72 298.2 313.06 299.9 312.22 299.99 310.33 301.31 311.69 303.14 311.18 302.25 312.86 303.3 314.44 301.43 314.11 300.25 315.6"/><polygon class="cls-2" points="300.21 306.06 299.94 304.18 298.16 303.52 299.87 302.68 299.95 300.79 301.27 302.15 303.1 301.64 302.21 303.32 303.26 304.9 301.39 304.57 300.21 306.06"/><polygon class="cls-2" points="300.24 296.52 299.97 294.64 298.2 293.98 299.9 293.14 299.98 291.25 301.3 292.61 303.13 292.1 302.24 293.78 303.29 295.36 301.42 295.03 300.24 296.52"/><polygon class="cls-2" points="304.43 339.74 304.17 337.86 302.39 337.2 304.09 336.36 304.17 334.46 305.49 335.83 307.32 335.32 306.44 336.99 307.48 338.58 305.62 338.25 304.43 339.74"/><polygon class="cls-2" points="304.33 330.2 304.06 328.32 302.28 327.66 303.99 326.82 304.07 324.93 305.39 326.29 307.22 325.78 306.33 327.46 307.38 329.04 305.51 328.71 304.33 330.2"/><polygon class="cls-2" points="304.29 320.66 304.02 318.78 302.25 318.12 303.95 317.28 304.03 315.39 305.35 316.75 307.18 316.24 306.29 317.92 307.34 319.5 305.47 319.17 304.29 320.66"/><polygon class="cls-2" points="304.25 311.12 303.99 309.24 302.21 308.58 303.91 307.74 303.99 305.85 305.32 307.21 307.14 306.7 306.26 308.38 307.3 309.96 305.44 309.63 304.25 311.12"/><polygon class="cls-2" points="304.22 301.58 303.95 299.7 302.17 299.04 303.87 298.2 303.96 296.31 305.28 297.67 307.1 297.16 306.22 298.84 307.27 300.42 305.4 300.1 304.22 301.58"/><polygon class="cls-2" points="304.25 292.04 303.98 290.16 302.2 289.5 303.9 288.67 303.99 286.77 305.31 288.13 307.14 287.62 306.25 289.3 307.3 290.88 305.43 290.56 304.25 292.04"/></g><path class="cls-3" d="M285.44,455.73h43.22c16.12,0,27.56,15.71,22.61,31.05l-19.6,60.83c-3.16,9.82-12.3,16.47-22.61,16.47h0c-9.8,0-18.6-6.02-22.15-15.16l-23.62-60.83c-6.05-15.57,5.44-32.36,22.15-32.36Z"/></svg>