<?xml version="1.0" encoding="UTF-8"?><svg id="Layer_1" xmlns="http://www.w3.org/2000/svg" viewBox="0 0 612 612"><defs><style>.cls-1{fill:#ffc761;}.cls-1,.cls-2,.cls-3,.cls-4,.cls-5{stroke:#231f20;stroke-miterlimit:10;}.cls-2{fill:#ffcf01;}.cls-3{fill:#a97c50;}.cls-4{fill:#3e56a6;}.cls-5{fill:#231f20;}</style></defs><polygon class="cls-3" points="368.26 521.05 368.26 383.91 368.84 382.55 368.26 382.09 368.26 381.55 367.56 381.55 329.83 352.18 320.43 374.14 348.75 396.2 348.75 521.05 368.26 521.05"/><rect class="cls-4" x="228.27" y="214.23" width="106.67" height="240.31" rx="27.39" ry="27.39"/><circle class="cls-1" cx="284.53" cy="173.72" r="56.26"/><rect class="cls-5" x="243.68" width="84.45" height="135.07"/><rect class="cls-4" x="285.9" y="454.55" width="22.89" height="152.14"/><rect class="cls-4" x="250.78" y="454.55" width="22.89" height="152.14"/><rect class="cls-4" x="201.73" y="226.42" width="25.2" height="165.14" rx="5.22" ry="5.22"/><rect class="cls-4" x="336.18" y="233.13" width="25.2" height="158.42" rx="5.22" ry="5.22"/><circle class="cls-2" cx="214.33" cy="233.13" r="32.09"/><circle class="cls-2" cx="347.15" cy="233.13" r="32.09"/></svg>