<?xml version="1.0" encoding="UTF-8"?><svg id="Layer_1" xmlns="http://www.w3.org/2000/svg" viewBox="0 0 612 612"><defs><style>.cls-1{fill:#ffc761;}.cls-1,.cls-2,.cls-3,.cls-4,.cls-5,.cls-6{stroke:#231f20;stroke-miterlimit:10;}.cls-2{fill:#ffcf01;}.cls-3{fill:#c49a6c;}.cls-4{fill:#3e56a6;}.cls-5{fill:#231f20;}.cls-6{fill:none;}</style></defs><rect class="cls-4" x="408.06" y="215.54" width="107.32" height="241.79" rx="27.39" ry="27.39"/><circle class="cls-1" cx="464.66" cy="174.79" r="56.6"/><rect class="cls-5" x="423.55" width="84.97" height="135.9"/><rect class="cls-4" x="453.14" y="457.33" width="23.03" height="153.07"/><rect class="cls-4" x="454.52" y="457.33" width="23.03" height="153.07"/><rect class="cls-4" x="304.46" y="159.91" width="25.36" height="166.15" rx="5.22" ry="5.22" transform="translate(514.75 -104.24) rotate(82.19)"/><circle class="cls-2" cx="392.6" cy="233.67" r="32.28"/><line class="cls-6" x1="175.03" y1="210.1" x2="51.87" y2="608.91"/><line class="cls-6" x1="206.93" y1="210.1" x2="228.54" y2="603.77"/><line class="cls-6" x1="189.43" y1="210.1" x2="175.03" y2="612"/><path class="cls-3" d="M144.78,161.15H51.87v24.47h92.91v24.47h76.32c7.74,12.39,12.86,33.79,12.86,58.16,0,28.23-6.87,52.5-16.72,63.36l27.14,2.97c11.52-27.91,13.08-51.55,12.73-66.33-.61-26.5-7.87-47.06-15.15-58.16h52.42v48.96h16.46v-48.96h40.61v-48.95H144.78Z"/><rect class="cls-4" x="401.98" y="128.12" width="25.36" height="221.27" rx="5.22" ry="5.22" transform="translate(634.45 -186.25) rotate(87.41)"/><circle class="cls-2" cx="527.84" cy="234.27" r="32.28"/></svg>